<?xml version="1.0" encoding="utf-8"?>
<svg viewBox="45.137 36.674 330.414 207.699" xmlns="http://www.w3.org/2000/svg">
  <g id="svgg">
    <g id="g-1" transform="matrix(1, 0, 0, 1, 1.411538, -47.461456)">
      <path id="path0" d="M 182.719 84.919 C 171.6 86.057 160.856 91.781 154.506 99.949 C 148.626 107.513 144.374 118.762 143.72 128.482 C 143.548 131.054 143.267 132.39 142.9 132.39 C 142.627 132.39 140.55 131.609 139.262 131.022 C 136.503 129.764 127.88 129.294 124.811 130.235 C 116.812 132.687 109.975 139.178 105.225 148.829 C 102.613 154.137 102.576 154.299 102.581 160.485 C 102.585 166.486 102.695 167.067 104.572 170.995 C 105.183 172.274 105.621 173.381 105.545 173.456 C 105.469 173.531 102.542 173.876 99.04 174.222 C 80.092 176.094 70.701 178.776 61.445 184.96 C 48.971 193.293 42.95 208.836 44.89 227.691 C 46.683 245.119 60.791 258.786 77.949 259.716 C 88.523 260.289 95.906 258.641 104.628 253.761 C 107.805 251.983 107.491 251.979 108.643 253.813 C 118.041 268.778 138.231 277.087 160.104 274.992 C 178.638 273.216 192.702 265.435 200.663 252.552 C 202.696 249.262 203.283 248.408 203.513 248.408 C 203.613 248.408 204.359 249.432 205.17 250.682 C 218.378 271.051 220.7 244.55 241.571 236.007 C 250.746 232.252 259.408 229.441 248.859 220.52 C 127.393 117.801 238.337 202.445 242.207 206.009 C 249.383 212.618 218.968 215.002 231.462 215.011 C 238.075 215.016 246.755 218.004 252.281 215.736 C 271.075 208.024 288.916 214.097 288.327 194.747 C 287.964 182.818 292.938 186.752 278.014 189.018 C 70.407 220.536 267.848 180.152 254.462 186.49 L 257.842 184.27 C 255.334 176.12 243.941 172.293 246.449 180.443 C 246.389 180.148 253.676 175.009 253.447 173.619 C 250.994 158.764 230.151 163.591 219.089 164.418 C 47.997 177.209 254.315 127.887 236.889 132.426 C 235.165 132.875 233.286 133.359 232.713 133.501 L 231.671 133.759 L 231.535 132.822 C 226.84 100.521 208.274 82.302 182.719 84.919" stroke="none" fill-rule="evenodd" style="fill: rgb(88, 88, 100);"/>
    </g>
    <g id="g-2" transform="matrix(1.026645, 0, 0, 1.054258, -18.581957, 17.23628)" style="">
      <path id="path-1" d="M 206.573 24.712 C 195.598 25.85 184.994 31.574 178.726 39.742 C 172.922 47.306 168.725 58.555 168.08 68.275 C 167.91 70.847 167.633 72.183 167.271 72.183 C 167.001 72.183 164.951 71.402 163.68 70.815 C 160.957 69.557 152.445 69.087 149.416 70.028 C 141.521 72.48 134.773 78.971 130.084 88.622 C 127.506 93.93 127.47 94.092 127.475 100.278 C 127.479 106.279 127.587 106.86 129.44 110.788 C 130.043 112.067 130.475 113.174 130.4 113.249 C 130.325 113.324 127.436 113.669 123.98 114.015 C 105.278 115.887 96.008 118.569 86.873 124.753 C 74.56 133.086 68.618 148.629 70.532 167.484 C 72.302 184.912 86.227 198.579 103.162 199.509 C 113.599 200.082 120.886 198.434 129.495 193.554 C 132.631 191.776 132.321 191.772 133.458 193.606 C 142.734 208.571 162.662 216.88 184.251 214.785 C 202.545 213.009 216.426 205.228 224.284 192.345 C 226.291 189.055 226.87 188.201 227.097 188.201 C 227.196 188.201 227.932 189.225 228.733 190.475 C 241.769 210.844 264.016 218.666 284.616 210.123 C 293.672 206.368 300.681 200.425 308.981 189.464 C 310.13 187.945 309.817 187.833 313.088 190.939 C 320.114 197.61 328.205 200.402 340.537 200.411 C 347.064 200.416 348.67 200.113 354.124 197.845 C 372.674 190.133 384.251 172.697 383.67 153.347 C 383.311 141.418 378.136 132.164 366.53 122.699 C 353.132 111.772 332.364 108.191 319.152 114.529 L 316.919 115.6 L 316.812 115.064 C 316.752 114.769 316.519 113.391 316.293 112.001 C 313.872 97.146 311.029 90.38 303.729 82.113 C 294.42 71.571 277.24 67.68 260.04 72.219 C 258.338 72.668 256.484 73.152 255.918 73.294 L 254.89 73.552 L 254.755 72.615 C 250.121 40.314 231.796 22.095 206.573 24.712" stroke="none" fill-rule="evenodd" style="fill: rgb(179, 199, 234);"/>
    </g>
  </g>
</svg>