<?xml version="1.0" encoding="utf-8"?>
<svg viewBox="2.243 134.006 498.318 144.519" xmlns="http://www.w3.org/2000/svg">
  <path stroke="" stroke-width="2" stroke-linecap="round" stroke-linejoin="round" stroke-miterlimit="10" d="M 487.46 254.237 C 487.46 254.237 478.727 249.654 475.146 250.114 C 475.146 250.114 472.595 250.456 471.908 246.789 C 471.908 246.789 469.357 241.976 467.64 242.32 L 465.433 235.904 C 465.433 235.904 463.568 229.486 461.164 233.039 L 458.76 234.987 C 458.76 234.987 451.547 224.557 448.996 222.955 C 448.996 222.955 445.219 218.601 444.189 218.601 L 437.86 213.444 L 432.562 208.744 L 429.127 200.265 L 428.097 196.254 L 426.38 192.243 L 424.859 188.233 L 423.141 188.233 L 420.395 190.523 L 415.93 197.629 L 412.839 205.536 L 411.121 208.744 L 409.405 212.64 L 404.793 211.151 L 402.585 208.974 L 399.397 208.974 L 397.63 208.974 L 395.422 211.151 L 394.735 208.744 L 390.271 206.452 L 384.629 208.974 L 381.097 208.974 L 378.643 212.526 L 376.093 208.86 L 374.374 205.536 L 371.283 200.723 L 367.703 197.057 L 364.268 194.994 L 360.687 196.942 L 358.626 198.544 L 351.611 197.743 L 349.403 200.952 L 347.538 198.544 L 345.478 199.805 L 342.583 197.401 L 340.621 197.401 L 339.542 194.879 L 337.334 191.097 L 336.647 182.733 L 335.274 178.836 L 332.967 178.836 L 330.514 178.836 L 329.532 173.908 L 327.669 171.96 L 325.068 171.96 L 323.056 170.243 L 320.849 168.522 L 317.17 168.522 L 316.189 168.522 L 313.981 164.053 L 313.294 159.927 L 312.607 152.708 L 310.89 151.103 L 281.011 151.103 L 279.197 152.249 L 275.566 152.249 L 270.954 152.249 L 257.216 152.249 L 255.5 153.855 L 252.065 153.396 L 247.798 153.396 L 228.958 151.907 L 226.897 153.396 L 210.266 152.939 L 192.261 154.542 L 186.962 154.887 L 184.753 156.489 L 183.38 160.501 L 183.233 164.512 L 181.859 169.668 L 181.516 175.284 L 180.339 177.23 L 178.473 178.836 L 176.61 176.43 L 175.089 173.22 L 173.568 172.876 L 166.896 170.93 L 164.001 171.274 L 162.824 166.918 L 159.929 162.105 L 156.004 159.355 L 153.109 156.605 L 148.154 155.001 L 143.002 152.249 L 140.598 153.855 L 139.42 157.865 L 137.704 162.678 L 136.674 169.439 L 136.821 172.992 L 135.301 175.398 L 133.24 173.793 L 129.805 172.992 L 126.911 174.597 L 124.36 177.346 L 120.238 182.501 L 117.687 184.451 L 112.389 188.462 L 108.121 190.066 L 105.57 192.472 L 104.048 195.68 L 100.957 204.046 L 100.123 205.995 L 99.632 208.401 L 98.798 211.608 L 97.425 215.62 L 92.813 220.778 L 89.232 221.121 L 87.171 222.725 L 84.767 226.734 L 78.438 231.089 L 75.543 231.894 L 71.962 236.704 L 69.411 237.507 L 66.173 238.311 L 62.395 242.32 L 59.305 246.33 L 56.067 247.936 L 54.202 248.166 L 54.152 248.166 L 52.142 248.392 L 52.142 248.738 L 49.786 249.31 L 43.409 249.31 L 41.643 249.31 L 38.552 253.436 L 36.001 255.154 L 33.401 255.154 L 25.599 257.448 L 23.833 257.448 L 22.655 260.425 L 22.215 262.489 L 18.878 263.063 L 12.206 264.666 L 8.772 266.612 L 3.964 268.562 L 2.442 269.479 L 1.265 272.458 L 0.333 272.458 L -2.12 276.127 L -2.12 278.303 L 500.266 278.303 C 500.266 278.532 497.715 260.311 487.46 254.237 Z" style="fill: rgb(73, 73, 73);"/>
  <path stroke="" stroke-width="2" stroke-linecap="round" stroke-linejoin="round" stroke-miterlimit="10" d="M 488.843 258.143 C 488.843 258.143 480.11 254.409 476.529 254.784 C 476.529 254.784 473.978 255.06 473.29 252.077 C 473.29 252.077 470.74 248.153 469.021 248.433 L 466.815 243.205 C 466.815 243.205 464.949 237.977 462.546 240.869 L 460.142 242.458 C 460.142 242.458 452.93 233.958 450.378 232.651 C 450.378 232.651 446.601 229.103 445.571 229.103 L 439.242 224.901 L 433.943 221.072 L 430.509 214.162 L 429.479 210.895 L 427.762 207.626 L 426.241 204.357 L 424.523 204.357 L 421.776 206.225 L 417.312 212.015 L 414.22 218.459 L 412.503 221.072 L 410.786 224.248 L 406.175 223.033 L 403.967 221.26 L 400.778 221.26 L 399.012 221.26 L 396.804 223.033 L 396.118 221.072 L 391.653 219.205 L 386.011 221.26 L 382.478 221.26 L 380.025 224.156 L 377.474 221.166 L 375.757 218.459 L 372.666 214.535 L 369.085 211.549 L 365.65 209.867 L 362.069 211.455 L 360.008 212.761 L 352.993 212.109 L 350.785 214.723 L 348.92 212.761 L 346.86 213.79 L 343.965 211.83 L 342.003 211.83 L 340.924 209.773 L 338.716 206.691 L 338.029 199.876 L 336.655 196.701 L 334.349 196.701 L 331.896 196.701 L 330.915 192.685 L 329.051 191.099 L 326.45 191.099 L 324.439 189.698 L 322.231 188.296 L 318.552 188.296 L 317.57 188.296 L 315.363 184.655 L 314.676 181.292 L 313.988 175.409 L 312.272 174.102 L 282.394 174.102 L 280.578 175.037 L 276.948 175.037 L 272.337 175.037 L 258.599 175.037 L 256.881 176.343 L 253.448 175.971 L 249.18 175.971 L 230.34 174.758 L 228.279 175.971 L 211.648 175.598 L 193.642 176.903 L 188.344 177.185 L 186.136 178.492 L 184.762 181.76 L 184.615 185.028 L 183.241 189.231 L 182.898 193.806 L 181.72 195.394 L 179.855 196.701 L 177.992 194.74 L 176.47 192.125 L 174.95 191.846 L 168.277 190.258 L 165.383 190.538 L 164.205 186.99 L 161.311 183.067 L 157.386 180.827 L 154.491 178.583 L 149.537 177.279 L 144.385 175.037 L 141.98 176.343 L 140.803 179.612 L 139.086 183.534 L 138.056 189.042 L 138.203 191.938 L 136.682 193.899 L 134.621 192.591 L 131.187 191.938 L 128.293 193.247 L 125.742 195.488 L 121.62 199.688 L 119.069 201.278 L 113.771 204.545 L 109.503 205.852 L 106.951 207.813 L 105.429 210.427 L 102.339 217.245 L 101.506 218.831 L 101.015 220.791 L 100.18 223.406 L 98.807 226.675 L 94.195 230.878 L 90.614 231.159 L 88.553 232.464 L 86.149 235.732 L 79.82 239.28 L 76.926 239.936 L 73.345 243.856 L 70.793 244.511 L 67.554 245.165 L 63.778 248.433 L 60.687 251.702 L 57.448 253.01 L 55.584 253.196 L 55.535 253.196 L 53.524 253.382 L 53.524 253.663 L 51.169 254.129 L 44.791 254.129 L 43.025 254.129 L 39.934 257.492 L 37.383 258.891 L 34.782 258.891 L 26.981 260.76 L 25.215 260.76 L 24.037 263.186 L 23.597 264.867 L 20.261 265.335 L 13.588 266.641 L 10.154 268.228 L 5.345 269.817 L 3.824 270.566 L 2.647 272.991 L 1.715 272.991 L -0.738 275.981 L -0.738 277.755 L 501.648 277.755 C 501.648 277.942 499.096 263.093 488.843 258.143 Z" style="paint-order: stroke; fill: rgb(73, 73, 73);"/>
  <path stroke="" stroke-width="2" stroke-linecap="round" stroke-linejoin="round" stroke-miterlimit="10" d="M 486.307 260.181 C 486.307 260.181 477.575 256.748 473.993 257.092 C 473.993 257.092 471.442 257.349 470.755 254.602 C 470.755 254.602 468.205 250.998 466.486 251.254 L 464.279 246.447 C 464.279 246.447 462.415 241.641 460.011 244.302 L 457.606 245.762 C 457.606 245.762 450.395 237.948 447.844 236.748 C 447.844 236.748 444.066 233.484 443.035 233.484 L 436.707 229.625 L 431.408 226.104 L 427.974 219.753 L 426.944 216.748 L 425.226 213.743 L 423.706 210.739 L 421.988 210.739 L 419.241 212.457 L 414.777 217.778 L 411.685 223.701 L 409.969 226.104 L 408.251 229.025 L 403.64 227.907 L 401.431 226.278 L 398.243 226.278 L 396.477 226.278 L 394.269 227.907 L 393.582 226.104 L 389.118 224.387 L 383.475 226.278 L 379.943 226.278 L 377.489 228.938 L 374.939 226.191 L 373.222 223.701 L 370.131 220.096 L 366.55 217.35 L 363.115 215.805 L 359.533 217.262 L 357.473 218.464 L 350.458 217.865 L 348.25 220.268 L 346.385 218.464 L 344.324 219.409 L 341.43 217.608 L 339.467 217.608 L 338.389 215.72 L 336.181 212.885 L 335.494 206.621 L 334.12 203.704 L 331.814 203.704 L 329.361 203.704 L 328.38 200.01 L 326.515 198.552 L 323.916 198.552 L 321.903 197.264 L 319.697 195.976 L 316.016 195.976 L 315.035 195.976 L 312.827 192.629 L 312.141 189.537 L 311.454 184.13 L 309.736 182.928 L 279.859 182.928 L 278.043 183.787 L 274.413 183.787 L 269.801 183.787 L 256.064 183.787 L 254.347 184.99 L 250.913 184.647 L 246.644 184.647 L 227.805 183.53 L 225.744 184.647 L 209.112 184.303 L 191.107 185.503 L 185.808 185.761 L 183.601 186.962 L 182.226 189.968 L 182.08 192.97 L 180.706 196.836 L 180.363 201.04 L 179.185 202.499 L 177.321 203.704 L 175.456 201.899 L 173.936 199.496 L 172.415 199.238 L 165.742 197.779 L 162.848 198.036 L 161.67 194.775 L 158.776 191.169 L 154.85 189.112 L 151.956 187.049 L 147.001 185.848 L 141.85 183.787 L 139.446 184.99 L 138.268 187.992 L 136.551 191.601 L 135.521 196.663 L 135.668 199.324 L 134.147 201.128 L 132.086 199.924 L 128.652 199.324 L 125.757 200.525 L 123.206 202.585 L 119.086 206.448 L 116.534 207.909 L 111.236 210.911 L 106.967 212.112 L 104.416 213.915 L 102.895 216.32 L 99.804 222.585 L 98.971 224.045 L 98.48 225.849 L 97.645 228.25 L 96.272 231.256 L 91.66 235.117 L 88.079 235.375 L 86.018 236.577 L 83.615 239.58 L 77.285 242.843 L 74.391 243.444 L 70.81 247.05 L 68.259 247.648 L 65.02 248.251 L 61.242 251.254 L 58.152 254.259 L 54.913 255.462 L 53.049 255.633 L 53 255.633 L 50.988 255.803 L 50.988 256.062 L 48.634 256.49 L 42.256 256.49 L 40.489 256.49 L 37.399 259.581 L 34.848 260.867 L 32.247 260.867 L 24.446 262.586 L 22.68 262.586 L 21.503 264.817 L 21.061 266.362 L 17.725 266.792 L 11.052 267.993 L 7.618 269.452 L 2.81 270.909 L 1.29 271.598 L 0.112 273.83 L -0.82 273.83 L -3.273 276.579 L -3.273 278.208 L 499.113 278.208 C 499.113 278.379 496.562 264.73 486.307 260.181 Z" style="paint-order: stroke; fill: rgb(73, 73, 73);"/>
  <path stroke="" stroke-width="2" stroke-linecap="round" stroke-linejoin="round" stroke-miterlimit="10" d="M 484.503 264.618 C 484.503 264.618 475.771 261.903 472.19 262.176 C 472.19 262.176 469.638 262.378 468.951 260.206 C 468.951 260.206 466.401 257.356 464.682 257.559 L 462.475 253.758 C 462.475 253.758 460.611 249.955 458.207 252.059 L 455.803 253.215 C 455.803 253.215 448.591 247.036 446.04 246.087 C 446.04 246.087 442.262 243.507 441.231 243.507 L 434.903 240.452 L 429.604 237.667 L 426.17 232.645 L 425.14 230.267 L 423.422 227.893 L 421.902 225.517 L 420.184 225.517 L 417.437 226.875 L 412.973 231.085 L 409.881 235.769 L 408.165 237.667 L 406.447 239.975 L 401.836 239.094 L 399.628 237.804 L 396.439 237.804 L 394.673 237.804 L 392.465 239.094 L 391.779 237.667 L 387.314 236.313 L 381.672 237.804 L 378.139 237.804 L 375.685 239.909 L 373.135 237.738 L 371.418 235.769 L 368.327 232.916 L 364.746 230.743 L 361.311 229.523 L 357.73 230.676 L 355.669 231.626 L 348.654 231.153 L 346.446 233.05 L 344.581 231.626 L 342.52 232.372 L 339.626 230.948 L 337.663 230.948 L 336.585 229.454 L 334.377 227.212 L 333.69 222.259 L 332.317 219.95 L 330.01 219.95 L 327.557 219.95 L 326.576 217.032 L 324.712 215.875 L 322.112 215.875 L 320.1 214.859 L 317.893 213.841 L 314.212 213.841 L 313.231 213.841 L 311.023 211.193 L 310.337 208.748 L 309.65 204.473 L 307.933 203.522 L 278.055 203.522 L 276.239 204.201 L 272.609 204.201 L 267.997 204.201 L 254.26 204.201 L 252.543 205.151 L 249.109 204.879 L 244.84 204.879 L 226.002 203.997 L 223.94 204.879 L 207.309 204.61 L 189.303 205.56 L 184.005 205.76 L 181.797 206.713 L 180.423 209.09 L 180.276 211.464 L 178.902 214.521 L 178.559 217.846 L 177.381 219 L 175.517 219.95 L 173.652 218.523 L 172.132 216.624 L 170.611 216.419 L 163.938 215.267 L 161.044 215.47 L 159.866 212.89 L 156.972 210.039 L 153.046 208.41 L 150.152 206.781 L 145.198 205.829 L 140.046 204.201 L 137.642 205.151 L 136.464 207.527 L 134.747 210.377 L 133.717 214.382 L 133.864 216.489 L 132.343 217.913 L 130.282 216.963 L 126.848 216.489 L 123.954 217.44 L 121.403 219.068 L 117.282 222.122 L 114.73 223.277 L 109.432 225.651 L 105.163 226.603 L 102.612 228.028 L 101.091 229.929 L 98 234.884 L 97.167 236.04 L 96.676 237.464 L 95.841 239.365 L 94.469 241.74 L 89.856 244.797 L 86.275 245.001 L 84.214 245.95 L 81.811 248.327 L 75.481 250.907 L 72.587 251.384 L 69.006 254.234 L 66.455 254.707 L 63.216 255.181 L 59.439 257.559 L 56.348 259.934 L 53.109 260.886 L 51.246 261.022 L 51.196 261.022 L 49.185 261.157 L 49.185 261.362 L 46.83 261.699 L 40.452 261.699 L 38.686 261.699 L 35.595 264.144 L 33.044 265.163 L 30.443 265.163 L 22.642 266.521 L 20.876 266.521 L 19.699 268.285 L 19.257 269.505 L 15.921 269.845 L 9.249 270.797 L 5.814 271.95 L 1.006 273.106 L -0.514 273.648 L -1.692 275.411 L -2.624 275.411 L -5.077 277.586 L -5.077 278.875 L 497.309 278.875 C 497.309 279.01 494.758 268.215 484.503 264.618 Z" style="paint-order: stroke; fill: rgb(73, 73, 73);"/>
  <path stroke="" stroke-width="2" stroke-linecap="round" stroke-linejoin="round" stroke-miterlimit="10" d="M 483.026 271.883 C 483.026 271.883 474.293 270.03 470.712 270.217 C 470.712 270.217 468.161 270.354 467.473 268.874 C 467.473 268.874 464.923 266.925 463.206 267.065 L 460.998 264.471 C 460.998 264.471 459.134 261.874 456.73 263.314 L 454.326 264.1 C 454.326 264.1 447.113 259.883 444.562 259.235 C 444.562 259.235 440.785 257.473 439.755 257.473 L 433.426 255.388 L 428.127 253.491 L 424.694 250.06 L 423.663 248.436 L 421.946 246.817 L 420.425 245.194 L 418.707 245.194 L 415.961 246.121 L 411.496 248.995 L 408.404 252.193 L 406.687 253.491 L 404.971 255.064 L 400.359 254.462 L 398.151 253.581 L 394.962 253.581 L 393.196 253.581 L 390.988 254.462 L 390.301 253.491 L 385.837 252.562 L 380.195 253.581 L 376.663 253.581 L 374.209 255.017 L 371.658 253.536 L 369.94 252.193 L 366.849 250.246 L 363.268 248.763 L 359.834 247.93 L 356.253 248.717 L 354.191 249.365 L 347.177 249.043 L 344.968 250.337 L 343.104 249.365 L 341.044 249.875 L 338.15 248.902 L 336.187 248.902 L 335.107 247.884 L 332.9 246.352 L 332.213 242.97 L 330.84 241.396 L 328.533 241.396 L 326.08 241.396 L 325.099 239.403 L 323.235 238.616 L 320.634 238.616 L 318.622 237.921 L 316.415 237.226 L 312.736 237.226 L 311.755 237.226 L 309.546 235.419 L 308.86 233.75 L 308.173 230.832 L 306.455 230.184 L 276.577 230.184 L 274.762 230.645 L 271.132 230.645 L 266.52 230.645 L 252.782 230.645 L 251.066 231.296 L 247.632 231.11 L 243.363 231.11 L 224.524 230.507 L 222.463 231.11 L 205.831 230.927 L 187.827 231.574 L 182.527 231.712 L 180.319 232.361 L 178.946 233.983 L 178.798 235.604 L 177.425 237.69 L 177.082 239.959 L 175.904 240.747 L 174.039 241.396 L 172.175 240.422 L 170.655 239.126 L 169.134 238.987 L 162.461 238.199 L 159.566 238.338 L 158.39 236.577 L 155.494 234.632 L 151.57 233.52 L 148.676 232.407 L 143.72 231.757 L 138.568 230.645 L 136.164 231.296 L 134.987 232.916 L 133.27 234.863 L 132.24 237.598 L 132.387 239.034 L 130.867 240.006 L 128.805 239.356 L 125.372 239.034 L 122.477 239.682 L 119.925 240.793 L 115.804 242.879 L 113.253 243.666 L 107.955 245.289 L 103.687 245.936 L 101.135 246.909 L 99.614 248.207 L 96.523 251.588 L 95.689 252.378 L 95.198 253.35 L 94.364 254.646 L 92.991 256.269 L 88.379 258.352 L 84.797 258.493 L 82.737 259.142 L 80.333 260.763 L 74.004 262.523 L 71.109 262.848 L 67.528 264.796 L 64.977 265.119 L 61.739 265.444 L 57.961 267.065 L 54.87 268.686 L 51.632 269.335 L 49.768 269.428 L 49.719 269.428 L 47.708 269.521 L 47.708 269.66 L 45.353 269.892 L 38.975 269.892 L 37.209 269.892 L 34.118 271.56 L 31.566 272.255 L 28.966 272.255 L 21.166 273.183 L 19.399 273.183 L 18.222 274.386 L 17.781 275.218 L 14.444 275.451 L 7.771 276.099 L 4.338 276.888 L -0.471 277.675 L -1.992 278.047 L -3.169 279.252 L -4.101 279.252 L -6.554 280.733 L -6.554 281.613 L 495.832 281.613 C 495.832 281.707 493.281 274.339 483.026 271.883 Z" style="paint-order: stroke; fill: rgb(73, 73, 73);"/>
  <path stroke="" stroke-width="2" stroke-linecap="round" stroke-linejoin="round" stroke-miterlimit="10" d="M 486.72 271.785 C 486.72 271.785 477.988 270.259 474.407 270.414 C 474.407 270.414 471.855 270.525 471.168 269.309 C 471.168 269.309 468.618 267.706 466.9 267.822 L 464.692 265.687 C 464.692 265.687 462.828 263.553 460.425 264.735 L 458.02 265.384 C 458.02 265.384 450.808 261.915 448.257 261.381 C 448.257 261.381 444.479 259.933 443.448 259.933 L 437.121 258.217 L 431.821 256.656 L 428.388 253.835 L 427.357 252.5 L 425.64 251.167 L 424.119 249.833 L 422.402 249.833 L 419.655 250.597 L 415.19 252.959 L 412.098 255.588 L 410.382 256.656 L 408.664 257.952 L 404.053 257.456 L 401.845 256.732 L 398.656 256.732 L 396.89 256.732 L 394.682 257.456 L 393.996 256.656 L 389.531 255.894 L 383.89 256.732 L 380.356 256.732 L 377.903 257.912 L 375.352 256.694 L 373.635 255.588 L 370.544 253.988 L 366.963 252.768 L 363.528 252.083 L 359.948 252.731 L 357.886 253.263 L 350.871 252.998 L 348.663 254.064 L 346.798 253.263 L 344.738 253.682 L 341.843 252.882 L 339.881 252.882 L 338.802 252.045 L 336.594 250.786 L 335.907 248.005 L 334.534 246.709 L 332.227 246.709 L 329.774 246.709 L 328.793 245.07 L 326.929 244.421 L 324.329 244.421 L 322.317 243.85 L 320.11 243.278 L 316.43 243.278 L 315.449 243.278 L 313.24 241.793 L 312.554 240.42 L 311.867 238.019 L 310.15 237.487 L 280.272 237.487 L 278.456 237.867 L 274.826 237.867 L 270.214 237.867 L 256.477 237.867 L 254.76 238.401 L 251.326 238.249 L 247.057 238.249 L 228.218 237.753 L 226.157 238.249 L 209.526 238.097 L 191.521 238.629 L 186.222 238.743 L 184.014 239.277 L 182.64 240.611 L 182.493 241.945 L 181.119 243.66 L 180.776 245.527 L 179.598 246.176 L 177.734 246.709 L 175.869 245.908 L 174.349 244.842 L 172.828 244.728 L 166.155 244.078 L 163.261 244.194 L 162.083 242.746 L 159.189 241.144 L 155.264 240.231 L 152.369 239.315 L 147.415 238.781 L 142.263 237.867 L 139.859 238.401 L 138.681 239.734 L 136.964 241.335 L 135.934 243.584 L 136.081 244.766 L 134.561 245.566 L 132.499 245.032 L 129.066 244.766 L 126.171 245.3 L 123.62 246.213 L 119.499 247.928 L 116.947 248.575 L 111.649 249.911 L 107.381 250.443 L 104.829 251.243 L 103.308 252.31 L 100.217 255.092 L 99.384 255.74 L 98.893 256.542 L 98.058 257.608 L 96.686 258.942 L 92.073 260.656 L 88.492 260.771 L 86.431 261.305 L 84.028 262.639 L 77.698 264.087 L 74.804 264.353 L 71.223 265.955 L 68.672 266.221 L 65.433 266.488 L 61.656 267.822 L 58.565 269.155 L 55.326 269.69 L 53.463 269.766 L 53.413 269.766 L 51.402 269.842 L 51.402 269.956 L 49.047 270.145 L 42.669 270.145 L 40.903 270.145 L 37.812 271.518 L 35.261 272.09 L 32.66 272.09 L 24.86 272.852 L 23.093 272.852 L 21.916 273.844 L 21.474 274.529 L 18.138 274.72 L 11.466 275.254 L 8.032 275.9 L 3.223 276.549 L 1.703 276.853 L 0.525 277.845 L -0.407 277.845 L -2.86 279.065 L -2.86 279.788 L 499.526 279.788 C 499.526 279.864 496.975 273.805 486.72 271.785 Z" style="paint-order: stroke; fill: rgb(73, 73, 73);"/>
</svg>