<?xml version="1.0" encoding="utf-8"?>
<svg viewBox="2.804 82.984 503.924 138.351" xmlns="http://www.w3.org/2000/svg">
  <path stroke="" stroke-width="2" stroke-linecap="round" stroke-linejoin="round" stroke-miterlimit="10" d="M 490.263 200.34 C 490.263 200.34 481.53 195.757 477.949 196.217 C 477.949 196.217 475.398 196.559 474.711 192.892 C 474.711 192.892 472.16 188.079 470.443 188.423 L 468.236 182.007 C 468.236 182.007 466.371 175.589 463.967 179.142 L 461.563 181.09 C 461.563 181.09 454.35 170.66 451.799 169.058 C 451.799 169.058 448.022 164.704 446.992 164.704 L 440.663 159.547 L 435.365 154.847 L 431.93 146.368 L 430.9 142.357 L 429.183 138.346 L 427.662 134.336 L 425.944 134.336 L 423.198 136.626 L 418.733 143.732 L 415.642 151.639 L 413.924 154.847 L 412.208 158.743 L 407.596 157.254 L 405.388 155.077 L 402.2 155.077 L 400.433 155.077 L 398.225 157.254 L 397.538 154.847 L 393.074 152.555 L 387.432 155.077 L 383.9 155.077 L 381.446 158.629 L 378.896 154.963 L 377.177 151.639 L 374.086 146.826 L 370.506 143.16 L 367.071 141.097 L 363.49 143.045 L 361.429 144.647 L 354.414 143.846 L 352.206 147.055 L 350.341 144.647 L 348.281 145.908 L 345.386 143.504 L 343.424 143.504 L 342.345 140.982 L 340.137 137.2 L 339.45 128.836 L 338.077 124.939 L 335.77 124.939 L 333.317 124.939 L 332.335 120.011 L 330.472 118.063 L 327.871 118.063 L 325.859 116.346 L 323.652 114.625 L 319.973 114.625 L 318.992 114.625 L 316.784 110.156 L 316.097 106.03 L 315.41 98.811 L 313.693 97.206 L 283.814 97.206 L 282 98.352 L 278.369 98.352 L 273.757 98.352 L 260.019 98.352 L 258.303 99.958 L 254.868 99.499 L 250.601 99.499 L 231.761 98.01 L 229.7 99.499 L 213.069 99.042 L 195.064 100.645 L 189.765 100.99 L 187.556 102.592 L 186.183 106.604 L 186.036 110.615 L 184.662 115.771 L 184.319 121.387 L 183.142 123.333 L 181.276 124.939 L 179.413 122.533 L 177.892 119.323 L 176.371 118.979 L 169.699 117.033 L 166.804 117.377 L 165.627 113.021 L 162.732 108.208 L 158.807 105.458 L 155.912 102.708 L 150.957 101.104 L 145.805 98.352 L 143.401 99.958 L 142.223 103.968 L 140.507 108.781 L 139.477 115.542 L 139.624 119.095 L 138.104 121.501 L 136.043 119.896 L 132.608 119.095 L 129.714 120.7 L 127.163 123.449 L 123.041 128.604 L 120.49 130.554 L 115.192 134.565 L 110.924 136.169 L 108.373 138.575 L 106.851 141.783 L 103.76 150.149 L 102.926 152.098 L 102.435 154.504 L 101.601 157.711 L 100.228 161.723 L 95.616 166.881 L 92.035 167.224 L 89.974 168.828 L 87.57 172.837 L 81.241 177.192 L 78.346 177.997 L 74.765 182.807 L 72.214 183.61 L 68.976 184.414 L 65.198 188.423 L 62.108 192.433 L 58.87 194.039 L 57.005 194.269 L 56.955 194.269 L 54.945 194.495 L 54.945 194.841 L 52.589 195.413 L 46.212 195.413 L 44.446 195.413 L 41.355 199.539 L 38.804 201.257 L 36.204 201.257 L 28.402 203.551 L 26.636 203.551 L 25.458 206.528 L 25.018 208.592 L 21.681 209.166 L 15.009 210.769 L 11.575 212.715 L 6.767 214.665 L 5.245 215.582 L 4.068 218.561 L 3.136 218.561 L 0.683 222.23 L 0.683 224.406 L 503.069 224.406 C 503.069 224.635 500.518 206.414 490.263 200.34 Z" style="fill: rgb(94, 94, 94);"/>
  <path stroke="" stroke-width="2" stroke-linecap="round" stroke-linejoin="round" stroke-miterlimit="10" d="M 491.646 204.246 C 491.646 204.246 482.913 200.512 479.332 200.887 C 479.332 200.887 476.781 201.163 476.093 198.18 C 476.093 198.18 473.543 194.256 471.824 194.536 L 469.618 189.308 C 469.618 189.308 467.752 184.08 465.349 186.972 L 462.945 188.561 C 462.945 188.561 455.733 180.061 453.181 178.754 C 453.181 178.754 449.404 175.206 448.374 175.206 L 442.045 171.004 L 436.746 167.175 L 433.312 160.265 L 432.282 156.998 L 430.565 153.729 L 429.044 150.46 L 427.326 150.46 L 424.579 152.328 L 420.115 158.118 L 417.023 164.562 L 415.306 167.175 L 413.589 170.351 L 408.978 169.136 L 406.77 167.363 L 403.581 167.363 L 401.815 167.363 L 399.607 169.136 L 398.921 167.175 L 394.456 165.308 L 388.814 167.363 L 385.281 167.363 L 382.828 170.259 L 380.277 167.269 L 378.56 164.562 L 375.469 160.638 L 371.888 157.652 L 368.453 155.97 L 364.872 157.558 L 362.811 158.864 L 355.796 158.212 L 353.588 160.826 L 351.723 158.864 L 349.663 159.893 L 346.768 157.933 L 344.806 157.933 L 343.727 155.876 L 341.519 152.794 L 340.832 145.979 L 339.458 142.804 L 337.152 142.804 L 334.699 142.804 L 333.718 138.788 L 331.854 137.202 L 329.253 137.202 L 327.242 135.801 L 325.034 134.399 L 321.355 134.399 L 320.373 134.399 L 318.166 130.758 L 317.479 127.395 L 316.791 121.512 L 315.075 120.205 L 285.197 120.205 L 283.381 121.14 L 279.751 121.14 L 275.14 121.14 L 261.402 121.14 L 259.684 122.446 L 256.251 122.074 L 251.983 122.074 L 233.143 120.861 L 231.082 122.074 L 214.451 121.701 L 196.445 123.006 L 191.147 123.288 L 188.939 124.595 L 187.565 127.863 L 187.418 131.131 L 186.044 135.334 L 185.701 139.909 L 184.523 141.497 L 182.658 142.804 L 180.795 140.843 L 179.273 138.228 L 177.753 137.949 L 171.08 136.361 L 168.186 136.641 L 167.008 133.093 L 164.114 129.17 L 160.189 126.93 L 157.294 124.686 L 152.34 123.382 L 147.188 121.14 L 144.783 122.446 L 143.606 125.715 L 141.889 129.637 L 140.859 135.145 L 141.006 138.041 L 139.485 140.002 L 137.424 138.694 L 133.99 138.041 L 131.096 139.35 L 128.545 141.591 L 124.423 145.791 L 121.872 147.381 L 116.574 150.648 L 112.306 151.955 L 109.754 153.916 L 108.232 156.53 L 105.142 163.348 L 104.309 164.934 L 103.818 166.894 L 102.983 169.509 L 101.61 172.778 L 96.998 176.981 L 93.417 177.262 L 91.356 178.567 L 88.952 181.835 L 82.623 185.383 L 79.729 186.039 L 76.148 189.959 L 73.596 190.614 L 70.357 191.268 L 66.581 194.536 L 63.49 197.805 L 60.251 199.113 L 58.387 199.299 L 58.338 199.299 L 56.327 199.485 L 56.327 199.766 L 53.972 200.232 L 47.594 200.232 L 45.828 200.232 L 42.737 203.595 L 40.186 204.994 L 37.585 204.994 L 29.784 206.863 L 28.018 206.863 L 26.84 209.289 L 26.4 210.97 L 23.064 211.438 L 16.391 212.744 L 12.957 214.331 L 8.148 215.92 L 6.627 216.669 L 5.45 219.094 L 4.518 219.094 L 2.065 222.084 L 2.065 223.858 L 504.451 223.858 C 504.451 224.045 501.899 209.196 491.646 204.246 Z" style="paint-order: stroke; fill: rgb(249, 232, 45);"/>
  <path stroke="" stroke-width="2" stroke-linecap="round" stroke-linejoin="round" stroke-miterlimit="10" d="M 489.11 206.284 C 489.11 206.284 480.378 202.851 476.796 203.195 C 476.796 203.195 474.245 203.452 473.558 200.705 C 473.558 200.705 471.008 197.101 469.289 197.357 L 467.082 192.55 C 467.082 192.55 465.218 187.744 462.814 190.405 L 460.409 191.865 C 460.409 191.865 453.198 184.051 450.647 182.851 C 450.647 182.851 446.869 179.587 445.838 179.587 L 439.51 175.728 L 434.211 172.207 L 430.777 165.856 L 429.747 162.851 L 428.029 159.846 L 426.509 156.842 L 424.791 156.842 L 422.044 158.56 L 417.58 163.881 L 414.488 169.804 L 412.772 172.207 L 411.054 175.128 L 406.443 174.01 L 404.234 172.381 L 401.046 172.381 L 399.28 172.381 L 397.072 174.01 L 396.385 172.207 L 391.921 170.49 L 386.278 172.381 L 382.746 172.381 L 380.292 175.041 L 377.742 172.294 L 376.025 169.804 L 372.934 166.199 L 369.353 163.453 L 365.918 161.908 L 362.336 163.365 L 360.276 164.567 L 353.261 163.968 L 351.053 166.371 L 349.188 164.567 L 347.127 165.512 L 344.233 163.711 L 342.27 163.711 L 341.192 161.823 L 338.984 158.988 L 338.297 152.724 L 336.923 149.807 L 334.617 149.807 L 332.164 149.807 L 331.183 146.113 L 329.318 144.655 L 326.719 144.655 L 324.706 143.367 L 322.5 142.079 L 318.819 142.079 L 317.838 142.079 L 315.63 138.732 L 314.944 135.64 L 314.257 130.233 L 312.539 129.031 L 282.662 129.031 L 280.846 129.89 L 277.216 129.89 L 272.604 129.89 L 258.867 129.89 L 257.15 131.093 L 253.716 130.75 L 249.447 130.75 L 230.608 129.633 L 228.547 130.75 L 211.915 130.406 L 193.91 131.606 L 188.611 131.864 L 186.404 133.065 L 185.029 136.071 L 184.883 139.073 L 183.509 142.939 L 183.166 147.143 L 181.988 148.602 L 180.124 149.807 L 178.259 148.002 L 176.739 145.599 L 175.218 145.341 L 168.545 143.882 L 165.651 144.139 L 164.473 140.878 L 161.579 137.272 L 157.653 135.215 L 154.759 133.152 L 149.804 131.951 L 144.653 129.89 L 142.249 131.093 L 141.071 134.095 L 139.354 137.704 L 138.324 142.766 L 138.471 145.427 L 136.95 147.231 L 134.889 146.027 L 131.455 145.427 L 128.56 146.628 L 126.009 148.688 L 121.889 152.551 L 119.337 154.012 L 114.039 157.014 L 109.77 158.215 L 107.219 160.018 L 105.698 162.423 L 102.607 168.688 L 101.774 170.148 L 101.283 171.952 L 100.448 174.353 L 99.075 177.359 L 94.463 181.22 L 90.882 181.478 L 88.821 182.68 L 86.418 185.683 L 80.088 188.946 L 77.194 189.547 L 73.613 193.153 L 71.062 193.751 L 67.823 194.354 L 64.045 197.357 L 60.955 200.362 L 57.716 201.565 L 55.852 201.736 L 55.803 201.736 L 53.791 201.906 L 53.791 202.165 L 51.437 202.593 L 45.059 202.593 L 43.292 202.593 L 40.202 205.684 L 37.651 206.97 L 35.05 206.97 L 27.249 208.689 L 25.483 208.689 L 24.306 210.92 L 23.864 212.465 L 20.528 212.895 L 13.855 214.096 L 10.421 215.555 L 5.613 217.012 L 4.093 217.701 L 2.915 219.933 L 1.983 219.933 L -0.47 222.682 L -0.47 224.311 L 501.916 224.311 C 501.916 224.482 499.365 210.833 489.11 206.284 Z" style="paint-order: stroke; fill: rgb(50, 170, 74);"/>
  <path stroke="" stroke-width="2" stroke-linecap="round" stroke-linejoin="round" stroke-miterlimit="10" d="M 487.306 210.721 C 487.306 210.721 478.574 208.006 474.993 208.279 C 474.993 208.279 472.441 208.481 471.754 206.309 C 471.754 206.309 469.204 203.459 467.485 203.662 L 465.278 199.861 C 465.278 199.861 463.414 196.058 461.01 198.162 L 458.606 199.318 C 458.606 199.318 451.394 193.139 448.843 192.19 C 448.843 192.19 445.065 189.61 444.034 189.61 L 437.706 186.555 L 432.407 183.77 L 428.973 178.748 L 427.943 176.37 L 426.225 173.996 L 424.705 171.62 L 422.987 171.62 L 420.24 172.978 L 415.776 177.188 L 412.684 181.872 L 410.968 183.77 L 409.25 186.078 L 404.639 185.197 L 402.431 183.907 L 399.242 183.907 L 397.476 183.907 L 395.268 185.197 L 394.582 183.77 L 390.117 182.416 L 384.475 183.907 L 380.942 183.907 L 378.488 186.012 L 375.938 183.841 L 374.221 181.872 L 371.13 179.019 L 367.549 176.846 L 364.114 175.626 L 360.533 176.779 L 358.472 177.729 L 351.457 177.256 L 349.249 179.153 L 347.384 177.729 L 345.323 178.475 L 342.429 177.051 L 340.466 177.051 L 339.388 175.557 L 337.18 173.315 L 336.493 168.362 L 335.12 166.053 L 332.813 166.053 L 330.36 166.053 L 329.379 163.135 L 327.515 161.978 L 324.915 161.978 L 322.903 160.962 L 320.696 159.944 L 317.015 159.944 L 316.034 159.944 L 313.826 157.296 L 313.14 154.851 L 312.453 150.576 L 310.736 149.625 L 280.858 149.625 L 279.042 150.304 L 275.412 150.304 L 270.8 150.304 L 257.063 150.304 L 255.346 151.254 L 251.912 150.982 L 247.643 150.982 L 228.805 150.1 L 226.743 150.982 L 210.112 150.713 L 192.106 151.663 L 186.808 151.863 L 184.6 152.816 L 183.226 155.193 L 183.079 157.567 L 181.705 160.624 L 181.362 163.949 L 180.184 165.103 L 178.32 166.053 L 176.455 164.626 L 174.935 162.727 L 173.414 162.522 L 166.741 161.37 L 163.847 161.573 L 162.669 158.993 L 159.775 156.142 L 155.849 154.513 L 152.955 152.884 L 148.001 151.932 L 142.849 150.304 L 140.445 151.254 L 139.267 153.63 L 137.55 156.48 L 136.52 160.485 L 136.667 162.592 L 135.146 164.016 L 133.085 163.066 L 129.651 162.592 L 126.757 163.543 L 124.206 165.171 L 120.085 168.225 L 117.533 169.38 L 112.235 171.754 L 107.966 172.706 L 105.415 174.131 L 103.894 176.032 L 100.803 180.987 L 99.97 182.143 L 99.479 183.567 L 98.644 185.468 L 97.272 187.843 L 92.659 190.9 L 89.078 191.104 L 87.017 192.053 L 84.614 194.43 L 78.284 197.01 L 75.39 197.487 L 71.809 200.337 L 69.258 200.81 L 66.019 201.284 L 62.242 203.662 L 59.151 206.037 L 55.912 206.989 L 54.049 207.125 L 53.999 207.125 L 51.988 207.26 L 51.988 207.465 L 49.633 207.802 L 43.255 207.802 L 41.489 207.802 L 38.398 210.247 L 35.847 211.266 L 33.246 211.266 L 25.445 212.624 L 23.679 212.624 L 22.502 214.388 L 22.06 215.608 L 18.724 215.948 L 12.052 216.9 L 8.617 218.053 L 3.809 219.209 L 2.289 219.751 L 1.111 221.514 L 0.179 221.514 L -2.274 223.689 L -2.274 224.978 L 500.112 224.978 C 500.112 225.113 497.561 214.318 487.306 210.721 Z" style="paint-order: stroke; fill: rgb(76, 119, 237);"/>
  <path stroke="" stroke-width="2" stroke-linecap="round" stroke-linejoin="round" stroke-miterlimit="10" d="M 485.829 217.986 C 485.829 217.986 477.096 216.133 473.515 216.32 C 473.515 216.32 470.964 216.457 470.276 214.977 C 470.276 214.977 467.726 213.028 466.009 213.168 L 463.801 210.574 C 463.801 210.574 461.937 207.977 459.533 209.417 L 457.129 210.203 C 457.129 210.203 449.916 205.986 447.365 205.338 C 447.365 205.338 443.588 203.576 442.558 203.576 L 436.229 201.491 L 430.93 199.594 L 427.497 196.163 L 426.466 194.539 L 424.749 192.92 L 423.228 191.297 L 421.51 191.297 L 418.764 192.224 L 414.299 195.098 L 411.207 198.296 L 409.49 199.594 L 407.774 201.167 L 403.162 200.565 L 400.954 199.684 L 397.765 199.684 L 395.999 199.684 L 393.791 200.565 L 393.104 199.594 L 388.64 198.665 L 382.998 199.684 L 379.466 199.684 L 377.012 201.12 L 374.461 199.639 L 372.743 198.296 L 369.652 196.349 L 366.071 194.866 L 362.637 194.033 L 359.056 194.82 L 356.994 195.468 L 349.98 195.146 L 347.771 196.44 L 345.907 195.468 L 343.847 195.978 L 340.953 195.005 L 338.99 195.005 L 337.91 193.987 L 335.703 192.455 L 335.016 189.073 L 333.643 187.499 L 331.336 187.499 L 328.883 187.499 L 327.902 185.506 L 326.038 184.719 L 323.437 184.719 L 321.425 184.024 L 319.218 183.329 L 315.539 183.329 L 314.558 183.329 L 312.349 181.522 L 311.663 179.853 L 310.976 176.935 L 309.258 176.287 L 279.38 176.287 L 277.565 176.748 L 273.935 176.748 L 269.323 176.748 L 255.585 176.748 L 253.869 177.399 L 250.435 177.213 L 246.166 177.213 L 227.327 176.61 L 225.266 177.213 L 208.634 177.03 L 190.63 177.677 L 185.33 177.815 L 183.122 178.464 L 181.749 180.086 L 181.601 181.707 L 180.228 183.793 L 179.885 186.062 L 178.707 186.85 L 176.842 187.499 L 174.978 186.525 L 173.458 185.229 L 171.937 185.09 L 165.264 184.302 L 162.369 184.441 L 161.193 182.68 L 158.297 180.735 L 154.373 179.623 L 151.479 178.51 L 146.523 177.86 L 141.371 176.748 L 138.967 177.399 L 137.79 179.019 L 136.073 180.966 L 135.043 183.701 L 135.19 185.137 L 133.67 186.109 L 131.608 185.459 L 128.175 185.137 L 125.28 185.785 L 122.728 186.896 L 118.607 188.982 L 116.056 189.769 L 110.758 191.392 L 106.49 192.039 L 103.938 193.012 L 102.417 194.31 L 99.326 197.691 L 98.492 198.481 L 98.001 199.453 L 97.167 200.749 L 95.794 202.372 L 91.182 204.455 L 87.6 204.596 L 85.54 205.245 L 83.136 206.866 L 76.807 208.626 L 73.912 208.951 L 70.331 210.899 L 67.78 211.222 L 64.542 211.547 L 60.764 213.168 L 57.673 214.789 L 54.435 215.438 L 52.571 215.531 L 52.522 215.531 L 50.511 215.624 L 50.511 215.763 L 48.156 215.995 L 41.778 215.995 L 40.012 215.995 L 36.921 217.663 L 34.369 218.358 L 31.769 218.358 L 23.969 219.286 L 22.202 219.286 L 21.025 220.489 L 20.584 221.321 L 17.247 221.554 L 10.574 222.202 L 7.141 222.991 L 2.332 223.778 L 0.811 224.15 L -0.366 225.355 L -1.298 225.355 L -3.751 226.836 L -3.751 227.716 L 498.635 227.716 C 498.635 227.81 496.084 220.442 485.829 217.986 Z" style="paint-order: stroke; fill: rgb(255, 255, 255);"/>
  <path stroke="" stroke-width="2" stroke-linecap="round" stroke-linejoin="round" stroke-miterlimit="10" d="M 489.523 217.888 C 489.523 217.888 480.791 216.362 477.21 216.517 C 477.21 216.517 474.658 216.628 473.971 215.412 C 473.971 215.412 471.421 213.809 469.703 213.925 L 467.495 211.79 C 467.495 211.79 465.631 209.656 463.228 210.838 L 460.823 211.487 C 460.823 211.487 453.611 208.018 451.06 207.484 C 451.06 207.484 447.282 206.036 446.251 206.036 L 439.924 204.32 L 434.624 202.759 L 431.191 199.938 L 430.16 198.603 L 428.443 197.27 L 426.922 195.936 L 425.205 195.936 L 422.458 196.7 L 417.993 199.062 L 414.901 201.691 L 413.185 202.759 L 411.467 204.055 L 406.856 203.559 L 404.648 202.835 L 401.459 202.835 L 399.693 202.835 L 397.485 203.559 L 396.799 202.759 L 392.334 201.997 L 386.693 202.835 L 383.159 202.835 L 380.706 204.015 L 378.155 202.797 L 376.438 201.691 L 373.347 200.091 L 369.766 198.871 L 366.331 198.186 L 362.751 198.834 L 360.689 199.366 L 353.674 199.101 L 351.466 200.167 L 349.601 199.366 L 347.541 199.785 L 344.646 198.985 L 342.684 198.985 L 341.605 198.148 L 339.397 196.889 L 338.71 194.108 L 337.337 192.812 L 335.03 192.812 L 332.577 192.812 L 331.596 191.173 L 329.732 190.524 L 327.132 190.524 L 325.12 189.953 L 322.913 189.381 L 319.233 189.381 L 318.252 189.381 L 316.043 187.896 L 315.357 186.523 L 314.67 184.122 L 312.953 183.59 L 283.075 183.59 L 281.259 183.97 L 277.629 183.97 L 273.017 183.97 L 259.28 183.97 L 257.563 184.504 L 254.129 184.352 L 249.86 184.352 L 231.021 183.856 L 228.96 184.352 L 212.329 184.2 L 194.324 184.732 L 189.025 184.846 L 186.817 185.38 L 185.443 186.714 L 185.296 188.048 L 183.922 189.763 L 183.579 191.63 L 182.401 192.279 L 180.537 192.812 L 178.672 192.011 L 177.152 190.945 L 175.631 190.831 L 168.958 190.181 L 166.064 190.297 L 164.886 188.849 L 161.992 187.247 L 158.067 186.334 L 155.172 185.418 L 150.218 184.884 L 145.066 183.97 L 142.662 184.504 L 141.484 185.837 L 139.767 187.438 L 138.737 189.687 L 138.884 190.869 L 137.364 191.669 L 135.302 191.135 L 131.869 190.869 L 128.974 191.403 L 126.423 192.316 L 122.302 194.031 L 119.75 194.678 L 114.452 196.014 L 110.184 196.546 L 107.632 197.346 L 106.111 198.413 L 103.02 201.195 L 102.187 201.843 L 101.696 202.645 L 100.861 203.711 L 99.489 205.045 L 94.876 206.759 L 91.295 206.874 L 89.234 207.408 L 86.831 208.742 L 80.501 210.19 L 77.607 210.456 L 74.026 212.058 L 71.475 212.324 L 68.236 212.591 L 64.459 213.925 L 61.368 215.258 L 58.129 215.793 L 56.266 215.869 L 56.216 215.869 L 54.205 215.945 L 54.205 216.059 L 51.85 216.248 L 45.472 216.248 L 43.706 216.248 L 40.615 217.621 L 38.064 218.193 L 35.463 218.193 L 27.663 218.955 L 25.896 218.955 L 24.719 219.947 L 24.277 220.632 L 20.941 220.823 L 14.269 221.357 L 10.835 222.003 L 6.026 222.652 L 4.506 222.956 L 3.328 223.948 L 2.396 223.948 L -0.057 225.168 L -0.057 225.891 L 502.329 225.891 C 502.329 225.967 499.778 219.908 489.523 217.888 Z" style="paint-order: stroke; fill: rgb(255, 87, 87);"/>
</svg>