<?xml version="1.0" encoding="utf-8"?>
<svg viewBox="0 0 500 500" xmlns="http://www.w3.org/2000/svg">
  <path stroke="" stroke-width="2" stroke-linecap="round" stroke-linejoin="round" stroke-miterlimit="10" d="M 489.142 278.907 C 489.142 278.907 480.409 274.324 476.828 274.784 C 476.828 274.784 474.277 275.126 473.59 271.459 C 473.59 271.459 471.039 266.646 469.322 266.99 L 467.115 260.574 C 467.115 260.574 465.25 254.156 462.846 257.709 L 460.442 259.657 C 460.442 259.657 453.229 249.227 450.678 247.625 C 450.678 247.625 446.901 243.271 445.871 243.271 L 439.542 238.114 L 434.244 233.414 L 430.809 224.935 L 429.779 220.924 L 428.062 216.913 L 426.541 212.903 L 424.823 212.903 L 422.077 215.193 L 417.612 222.299 L 414.521 230.206 L 412.803 233.414 L 411.087 237.31 L 406.475 235.821 L 404.267 233.644 L 401.079 233.644 L 399.312 233.644 L 397.104 235.821 L 396.417 233.414 L 391.953 231.122 L 386.311 233.644 L 382.779 233.644 L 380.325 237.196 L 377.775 233.53 L 376.056 230.206 L 372.965 225.393 L 369.385 221.727 L 365.95 219.664 L 362.369 221.612 L 360.308 223.214 L 353.293 222.413 L 351.085 225.622 L 349.22 223.214 L 347.16 224.475 L 344.265 222.071 L 342.303 222.071 L 341.224 219.549 L 339.016 215.767 L 338.329 207.403 L 336.956 203.506 L 334.649 203.506 L 332.196 203.506 L 331.214 198.578 L 329.351 196.63 L 326.75 196.63 L 324.738 194.913 L 322.531 193.192 L 318.852 193.192 L 317.871 193.192 L 315.663 188.723 L 314.976 184.597 L 314.289 177.378 L 312.572 175.773 L 282.693 175.773 L 280.879 176.919 L 277.248 176.919 L 272.636 176.919 L 258.898 176.919 L 257.182 178.525 L 253.747 178.066 L 249.48 178.066 L 230.64 176.577 L 228.579 178.066 L 211.948 177.609 L 193.943 179.212 L 188.644 179.557 L 186.435 181.159 L 185.062 185.171 L 184.915 189.182 L 183.541 194.338 L 183.198 199.954 L 182.021 201.9 L 180.155 203.506 L 178.292 201.1 L 176.771 197.89 L 175.25 197.546 L 168.578 195.6 L 165.683 195.944 L 164.506 191.588 L 161.611 186.775 L 157.686 184.025 L 154.791 181.275 L 149.836 179.671 L 144.684 176.919 L 142.28 178.525 L 141.102 182.535 L 139.386 187.348 L 138.356 194.109 L 138.503 197.662 L 136.983 200.068 L 134.922 198.463 L 131.487 197.662 L 128.593 199.267 L 126.042 202.016 L 121.92 207.171 L 119.369 209.121 L 114.071 213.132 L 109.803 214.736 L 107.252 217.142 L 105.73 220.35 L 102.639 228.716 L 101.805 230.665 L 101.314 233.071 L 100.48 236.278 L 99.107 240.29 L 94.495 245.448 L 90.914 245.791 L 88.853 247.395 L 86.449 251.404 L 80.12 255.759 L 77.225 256.564 L 73.644 261.374 L 71.093 262.177 L 67.855 262.981 L 64.077 266.99 L 60.987 271 L 57.749 272.606 L 55.884 272.836 L 55.834 272.836 L 53.824 273.062 L 53.824 273.408 L 51.468 273.98 L 45.091 273.98 L 43.325 273.98 L 40.234 278.106 L 37.683 279.824 L 35.083 279.824 L 27.281 282.118 L 25.515 282.118 L 24.337 285.095 L 23.897 287.159 L 20.56 287.733 L 13.888 289.336 L 10.454 291.282 L 5.646 293.232 L 4.124 294.149 L 2.947 297.128 L 2.015 297.128 L -0.438 300.797 L -0.438 302.973 L 501.948 302.973 C 501.948 303.202 499.397 284.981 489.142 278.907 Z" style="fill: rgb(73, 73, 73);"/>
  <path stroke="" stroke-width="2" stroke-linecap="round" stroke-linejoin="round" stroke-miterlimit="10" d="M 490.525 282.813 C 490.525 282.813 481.792 279.079 478.211 279.454 C 478.211 279.454 475.66 279.73 474.972 276.747 C 474.972 276.747 472.422 272.823 470.703 273.103 L 468.497 267.875 C 468.497 267.875 466.631 262.647 464.228 265.539 L 461.824 267.128 C 461.824 267.128 454.612 258.628 452.06 257.321 C 452.06 257.321 448.283 253.773 447.253 253.773 L 440.924 249.571 L 435.625 245.742 L 432.191 238.832 L 431.161 235.565 L 429.444 232.296 L 427.923 229.027 L 426.205 229.027 L 423.458 230.895 L 418.994 236.685 L 415.902 243.129 L 414.185 245.742 L 412.468 248.918 L 407.857 247.703 L 405.649 245.93 L 402.46 245.93 L 400.694 245.93 L 398.486 247.703 L 397.8 245.742 L 393.335 243.875 L 387.693 245.93 L 384.16 245.93 L 381.707 248.826 L 379.156 245.836 L 377.439 243.129 L 374.348 239.205 L 370.767 236.219 L 367.332 234.537 L 363.751 236.125 L 361.69 237.431 L 354.675 236.779 L 352.467 239.393 L 350.602 237.431 L 348.542 238.46 L 345.647 236.5 L 343.685 236.5 L 342.606 234.443 L 340.398 231.361 L 339.711 224.546 L 338.337 221.371 L 336.031 221.371 L 333.578 221.371 L 332.597 217.355 L 330.733 215.769 L 328.132 215.769 L 326.121 214.368 L 323.913 212.966 L 320.234 212.966 L 319.252 212.966 L 317.045 209.325 L 316.358 205.962 L 315.67 200.079 L 313.954 198.772 L 284.076 198.772 L 282.26 199.707 L 278.63 199.707 L 274.019 199.707 L 260.281 199.707 L 258.563 201.013 L 255.13 200.641 L 250.862 200.641 L 232.022 199.428 L 229.961 200.641 L 213.33 200.268 L 195.324 201.573 L 190.026 201.855 L 187.818 203.162 L 186.444 206.43 L 186.297 209.698 L 184.923 213.901 L 184.58 218.476 L 183.402 220.064 L 181.537 221.371 L 179.674 219.41 L 178.152 216.795 L 176.632 216.516 L 169.959 214.928 L 167.065 215.208 L 165.887 211.66 L 162.993 207.737 L 159.068 205.497 L 156.173 203.253 L 151.219 201.949 L 146.067 199.707 L 143.662 201.013 L 142.485 204.282 L 140.768 208.204 L 139.738 213.712 L 139.885 216.608 L 138.364 218.569 L 136.303 217.261 L 132.869 216.608 L 129.975 217.917 L 127.424 220.158 L 123.302 224.358 L 120.751 225.948 L 115.453 229.215 L 111.185 230.522 L 108.633 232.483 L 107.111 235.097 L 104.021 241.915 L 103.188 243.501 L 102.697 245.461 L 101.862 248.076 L 100.489 251.345 L 95.877 255.548 L 92.296 255.829 L 90.235 257.134 L 87.831 260.402 L 81.502 263.95 L 78.608 264.606 L 75.027 268.526 L 72.475 269.181 L 69.236 269.835 L 65.46 273.103 L 62.369 276.372 L 59.13 277.68 L 57.266 277.866 L 57.217 277.866 L 55.206 278.052 L 55.206 278.333 L 52.851 278.799 L 46.473 278.799 L 44.707 278.799 L 41.616 282.162 L 39.065 283.561 L 36.464 283.561 L 28.663 285.43 L 26.897 285.43 L 25.719 287.856 L 25.279 289.537 L 21.943 290.005 L 15.27 291.311 L 11.836 292.898 L 7.027 294.487 L 5.506 295.236 L 4.329 297.661 L 3.397 297.661 L 0.944 300.651 L 0.944 302.425 L 503.33 302.425 C 503.33 302.612 500.778 287.763 490.525 282.813 Z" style="paint-order: stroke; fill: rgb(73, 73, 73);"/>
  <path stroke="" stroke-width="2" stroke-linecap="round" stroke-linejoin="round" stroke-miterlimit="10" d="M 487.989 284.851 C 487.989 284.851 479.257 281.418 475.675 281.762 C 475.675 281.762 473.124 282.019 472.437 279.272 C 472.437 279.272 469.887 275.668 468.168 275.924 L 465.961 271.117 C 465.961 271.117 464.097 266.311 461.693 268.972 L 459.288 270.432 C 459.288 270.432 452.077 262.618 449.526 261.418 C 449.526 261.418 445.748 258.154 444.717 258.154 L 438.389 254.295 L 433.09 250.774 L 429.656 244.423 L 428.626 241.418 L 426.908 238.413 L 425.388 235.409 L 423.67 235.409 L 420.923 237.127 L 416.459 242.448 L 413.367 248.371 L 411.651 250.774 L 409.933 253.695 L 405.322 252.577 L 403.113 250.948 L 399.925 250.948 L 398.159 250.948 L 395.951 252.577 L 395.264 250.774 L 390.8 249.057 L 385.157 250.948 L 381.625 250.948 L 379.171 253.608 L 376.621 250.861 L 374.904 248.371 L 371.813 244.766 L 368.232 242.02 L 364.797 240.475 L 361.215 241.932 L 359.155 243.134 L 352.14 242.535 L 349.932 244.938 L 348.067 243.134 L 346.006 244.079 L 343.112 242.278 L 341.149 242.278 L 340.071 240.39 L 337.863 237.555 L 337.176 231.291 L 335.802 228.374 L 333.496 228.374 L 331.043 228.374 L 330.062 224.68 L 328.197 223.222 L 325.598 223.222 L 323.585 221.934 L 321.379 220.646 L 317.698 220.646 L 316.717 220.646 L 314.509 217.299 L 313.823 214.207 L 313.136 208.8 L 311.418 207.598 L 281.541 207.598 L 279.725 208.457 L 276.095 208.457 L 271.483 208.457 L 257.746 208.457 L 256.029 209.66 L 252.595 209.317 L 248.326 209.317 L 229.487 208.2 L 227.426 209.317 L 210.794 208.973 L 192.789 210.173 L 187.49 210.431 L 185.283 211.632 L 183.908 214.638 L 183.762 217.64 L 182.388 221.506 L 182.045 225.71 L 180.867 227.169 L 179.003 228.374 L 177.138 226.569 L 175.618 224.166 L 174.097 223.908 L 167.424 222.449 L 164.53 222.706 L 163.352 219.445 L 160.458 215.839 L 156.532 213.782 L 153.638 211.719 L 148.683 210.518 L 143.532 208.457 L 141.128 209.66 L 139.95 212.662 L 138.233 216.271 L 137.203 221.333 L 137.35 223.994 L 135.829 225.798 L 133.768 224.594 L 130.334 223.994 L 127.439 225.195 L 124.888 227.255 L 120.768 231.118 L 118.216 232.579 L 112.918 235.581 L 108.649 236.782 L 106.098 238.585 L 104.577 240.99 L 101.486 247.255 L 100.653 248.715 L 100.162 250.519 L 99.327 252.92 L 97.954 255.926 L 93.342 259.787 L 89.761 260.045 L 87.7 261.247 L 85.297 264.25 L 78.967 267.513 L 76.073 268.114 L 72.492 271.72 L 69.941 272.318 L 66.702 272.921 L 62.924 275.924 L 59.834 278.929 L 56.595 280.132 L 54.731 280.303 L 54.682 280.303 L 52.67 280.473 L 52.67 280.732 L 50.316 281.16 L 43.938 281.16 L 42.171 281.16 L 39.081 284.251 L 36.53 285.537 L 33.929 285.537 L 26.128 287.256 L 24.362 287.256 L 23.185 289.487 L 22.743 291.032 L 19.407 291.462 L 12.734 292.663 L 9.3 294.122 L 4.492 295.579 L 2.972 296.268 L 1.794 298.5 L 0.862 298.5 L -1.591 301.249 L -1.591 302.878 L 500.795 302.878 C 500.795 303.049 498.244 289.4 487.989 284.851 Z" style="paint-order: stroke; fill: rgb(73, 73, 73);"/>
  <path stroke="" stroke-width="2" stroke-linecap="round" stroke-linejoin="round" stroke-miterlimit="10" d="M 486.185 289.288 C 486.185 289.288 477.453 286.573 473.872 286.846 C 473.872 286.846 471.32 287.048 470.633 284.876 C 470.633 284.876 468.083 282.026 466.364 282.229 L 464.157 278.428 C 464.157 278.428 462.293 274.625 459.889 276.729 L 457.485 277.885 C 457.485 277.885 450.273 271.706 447.722 270.757 C 447.722 270.757 443.944 268.177 442.913 268.177 L 436.585 265.122 L 431.286 262.337 L 427.852 257.315 L 426.822 254.937 L 425.104 252.563 L 423.584 250.187 L 421.866 250.187 L 419.119 251.545 L 414.655 255.755 L 411.563 260.439 L 409.847 262.337 L 408.129 264.645 L 403.518 263.764 L 401.31 262.474 L 398.121 262.474 L 396.355 262.474 L 394.147 263.764 L 393.461 262.337 L 388.996 260.983 L 383.354 262.474 L 379.821 262.474 L 377.367 264.579 L 374.817 262.408 L 373.1 260.439 L 370.009 257.586 L 366.428 255.413 L 362.993 254.193 L 359.412 255.346 L 357.351 256.296 L 350.336 255.823 L 348.128 257.72 L 346.263 256.296 L 344.202 257.042 L 341.308 255.618 L 339.345 255.618 L 338.267 254.124 L 336.059 251.882 L 335.372 246.929 L 333.999 244.62 L 331.692 244.62 L 329.239 244.62 L 328.258 241.702 L 326.394 240.545 L 323.794 240.545 L 321.782 239.529 L 319.575 238.511 L 315.894 238.511 L 314.913 238.511 L 312.705 235.863 L 312.019 233.418 L 311.332 229.143 L 309.615 228.192 L 279.737 228.192 L 277.921 228.871 L 274.291 228.871 L 269.679 228.871 L 255.942 228.871 L 254.225 229.821 L 250.791 229.549 L 246.522 229.549 L 227.684 228.667 L 225.622 229.549 L 208.991 229.28 L 190.985 230.23 L 185.687 230.43 L 183.479 231.383 L 182.105 233.76 L 181.958 236.134 L 180.584 239.191 L 180.241 242.516 L 179.063 243.67 L 177.199 244.62 L 175.334 243.193 L 173.814 241.294 L 172.293 241.089 L 165.62 239.937 L 162.726 240.14 L 161.548 237.56 L 158.654 234.709 L 154.728 233.08 L 151.834 231.451 L 146.88 230.499 L 141.728 228.871 L 139.324 229.821 L 138.146 232.197 L 136.429 235.047 L 135.399 239.052 L 135.546 241.159 L 134.025 242.583 L 131.964 241.633 L 128.53 241.159 L 125.636 242.11 L 123.085 243.738 L 118.964 246.792 L 116.412 247.947 L 111.114 250.321 L 106.845 251.273 L 104.294 252.698 L 102.773 254.599 L 99.682 259.554 L 98.849 260.71 L 98.358 262.134 L 97.523 264.035 L 96.151 266.41 L 91.538 269.467 L 87.957 269.671 L 85.896 270.62 L 83.493 272.997 L 77.163 275.577 L 74.269 276.054 L 70.688 278.904 L 68.137 279.377 L 64.898 279.851 L 61.121 282.229 L 58.03 284.604 L 54.791 285.556 L 52.928 285.692 L 52.878 285.692 L 50.867 285.827 L 50.867 286.032 L 48.512 286.369 L 42.134 286.369 L 40.368 286.369 L 37.277 288.814 L 34.726 289.833 L 32.125 289.833 L 24.324 291.191 L 22.558 291.191 L 21.381 292.955 L 20.939 294.175 L 17.603 294.515 L 10.931 295.467 L 7.496 296.62 L 2.688 297.776 L 1.168 298.318 L -0.01 300.081 L -0.942 300.081 L -3.395 302.256 L -3.395 303.545 L 498.991 303.545 C 498.991 303.68 496.44 292.885 486.185 289.288 Z" style="paint-order: stroke; fill: rgb(73, 73, 73);"/>
  <path stroke="" stroke-width="2" stroke-linecap="round" stroke-linejoin="round" stroke-miterlimit="10" d="M 484.708 296.553 C 484.708 296.553 475.975 294.7 472.394 294.887 C 472.394 294.887 469.843 295.024 469.155 293.544 C 469.155 293.544 466.605 291.595 464.888 291.735 L 462.68 289.141 C 462.68 289.141 460.816 286.544 458.412 287.984 L 456.008 288.77 C 456.008 288.77 448.795 284.553 446.244 283.905 C 446.244 283.905 442.467 282.143 441.437 282.143 L 435.108 280.058 L 429.809 278.161 L 426.376 274.73 L 425.345 273.106 L 423.628 271.487 L 422.107 269.864 L 420.389 269.864 L 417.643 270.791 L 413.178 273.665 L 410.086 276.863 L 408.369 278.161 L 406.653 279.734 L 402.041 279.132 L 399.833 278.251 L 396.644 278.251 L 394.878 278.251 L 392.67 279.132 L 391.983 278.161 L 387.519 277.232 L 381.877 278.251 L 378.345 278.251 L 375.891 279.687 L 373.34 278.206 L 371.622 276.863 L 368.531 274.916 L 364.95 273.433 L 361.516 272.6 L 357.935 273.387 L 355.873 274.035 L 348.859 273.713 L 346.65 275.007 L 344.786 274.035 L 342.726 274.545 L 339.832 273.572 L 337.869 273.572 L 336.789 272.554 L 334.582 271.022 L 333.895 267.64 L 332.522 266.066 L 330.215 266.066 L 327.762 266.066 L 326.781 264.073 L 324.917 263.286 L 322.316 263.286 L 320.304 262.591 L 318.097 261.896 L 314.418 261.896 L 313.437 261.896 L 311.228 260.089 L 310.542 258.42 L 309.855 255.502 L 308.137 254.854 L 278.259 254.854 L 276.444 255.315 L 272.814 255.315 L 268.202 255.315 L 254.464 255.315 L 252.748 255.966 L 249.314 255.78 L 245.045 255.78 L 226.206 255.177 L 224.145 255.78 L 207.513 255.597 L 189.509 256.244 L 184.209 256.382 L 182.001 257.031 L 180.628 258.653 L 180.48 260.274 L 179.107 262.36 L 178.764 264.629 L 177.586 265.417 L 175.721 266.066 L 173.857 265.092 L 172.337 263.796 L 170.816 263.657 L 164.143 262.869 L 161.248 263.008 L 160.072 261.247 L 157.176 259.302 L 153.252 258.19 L 150.358 257.077 L 145.402 256.427 L 140.25 255.315 L 137.846 255.966 L 136.669 257.586 L 134.952 259.533 L 133.922 262.268 L 134.069 263.704 L 132.549 264.676 L 130.487 264.026 L 127.054 263.704 L 124.159 264.352 L 121.607 265.463 L 117.486 267.549 L 114.935 268.336 L 109.637 269.959 L 105.369 270.606 L 102.817 271.579 L 101.296 272.877 L 98.205 276.258 L 97.371 277.048 L 96.88 278.02 L 96.046 279.316 L 94.673 280.939 L 90.061 283.022 L 86.479 283.163 L 84.419 283.812 L 82.015 285.433 L 75.686 287.193 L 72.791 287.518 L 69.21 289.466 L 66.659 289.789 L 63.421 290.114 L 59.643 291.735 L 56.552 293.356 L 53.314 294.005 L 51.45 294.098 L 51.401 294.098 L 49.39 294.191 L 49.39 294.33 L 47.035 294.562 L 40.657 294.562 L 38.891 294.562 L 35.8 296.23 L 33.248 296.925 L 30.648 296.925 L 22.848 297.853 L 21.081 297.853 L 19.904 299.056 L 19.463 299.888 L 16.126 300.121 L 9.453 300.769 L 6.02 301.558 L 1.211 302.345 L -0.31 302.717 L -1.487 303.922 L -2.419 303.922 L -4.872 305.403 L -4.872 306.283 L 497.514 306.283 C 497.514 306.377 494.963 299.009 484.708 296.553 Z" style="paint-order: stroke; fill: rgb(73, 73, 73);"/>
  <path stroke="" stroke-width="2" stroke-linecap="round" stroke-linejoin="round" stroke-miterlimit="10" d="M 488.402 296.455 C 488.402 296.455 479.67 294.929 476.089 295.084 C 476.089 295.084 473.537 295.195 472.85 293.979 C 472.85 293.979 470.3 292.376 468.582 292.492 L 466.374 290.357 C 466.374 290.357 464.51 288.223 462.107 289.405 L 459.702 290.054 C 459.702 290.054 452.49 286.585 449.939 286.051 C 449.939 286.051 446.161 284.603 445.13 284.603 L 438.803 282.887 L 433.503 281.326 L 430.07 278.505 L 429.039 277.17 L 427.322 275.837 L 425.801 274.503 L 424.084 274.503 L 421.337 275.267 L 416.872 277.629 L 413.78 280.258 L 412.064 281.326 L 410.346 282.622 L 405.735 282.126 L 403.527 281.402 L 400.338 281.402 L 398.572 281.402 L 396.364 282.126 L 395.678 281.326 L 391.213 280.564 L 385.572 281.402 L 382.038 281.402 L 379.585 282.582 L 377.034 281.364 L 375.317 280.258 L 372.226 278.658 L 368.645 277.438 L 365.21 276.753 L 361.63 277.401 L 359.568 277.933 L 352.553 277.668 L 350.345 278.734 L 348.48 277.933 L 346.42 278.352 L 343.525 277.552 L 341.563 277.552 L 340.484 276.715 L 338.276 275.456 L 337.589 272.675 L 336.216 271.379 L 333.909 271.379 L 331.456 271.379 L 330.475 269.74 L 328.611 269.091 L 326.011 269.091 L 323.999 268.52 L 321.792 267.948 L 318.112 267.948 L 317.131 267.948 L 314.922 266.463 L 314.236 265.09 L 313.549 262.689 L 311.832 262.157 L 281.954 262.157 L 280.138 262.537 L 276.508 262.537 L 271.896 262.537 L 258.159 262.537 L 256.442 263.071 L 253.008 262.919 L 248.739 262.919 L 229.9 262.423 L 227.839 262.919 L 211.208 262.767 L 193.203 263.299 L 187.904 263.413 L 185.696 263.947 L 184.322 265.281 L 184.175 266.615 L 182.801 268.33 L 182.458 270.197 L 181.28 270.846 L 179.416 271.379 L 177.551 270.578 L 176.031 269.512 L 174.51 269.398 L 167.837 268.748 L 164.943 268.864 L 163.765 267.416 L 160.871 265.814 L 156.946 264.901 L 154.051 263.985 L 149.097 263.451 L 143.945 262.537 L 141.541 263.071 L 140.363 264.404 L 138.646 266.005 L 137.616 268.254 L 137.763 269.436 L 136.243 270.236 L 134.181 269.702 L 130.748 269.436 L 127.853 269.97 L 125.302 270.883 L 121.181 272.598 L 118.629 273.245 L 113.331 274.581 L 109.063 275.113 L 106.511 275.913 L 104.99 276.98 L 101.899 279.762 L 101.066 280.41 L 100.575 281.212 L 99.74 282.278 L 98.368 283.612 L 93.755 285.326 L 90.174 285.441 L 88.113 285.975 L 85.71 287.309 L 79.38 288.757 L 76.486 289.023 L 72.905 290.625 L 70.354 290.891 L 67.115 291.158 L 63.338 292.492 L 60.247 293.825 L 57.008 294.36 L 55.145 294.436 L 55.095 294.436 L 53.084 294.512 L 53.084 294.626 L 50.729 294.815 L 44.351 294.815 L 42.585 294.815 L 39.494 296.188 L 36.943 296.76 L 34.342 296.76 L 26.542 297.522 L 24.775 297.522 L 23.598 298.514 L 23.156 299.199 L 19.82 299.39 L 13.148 299.924 L 9.714 300.57 L 4.905 301.219 L 3.385 301.523 L 2.207 302.515 L 1.275 302.515 L -1.178 303.735 L -1.178 304.458 L 501.208 304.458 C 501.208 304.534 498.657 298.475 488.402 296.455 Z" style="paint-order: stroke; fill: rgb(73, 73, 73);"/>
</svg>